PathFileType	3	(X/Y/Z)	C:\Users\koon_\Desktop\
DataRate	CameraRate	NumFrames	NumMarkers	Units	OrigDataRate	OrigDataStartFrame	OrigNumFrames
100.0	100.0	12	27	mm	100.0	1848	2463	
Frame#	Time	get:LFHD			get:RFHD			get:LBHD			get:RBHD			get:C7			get:T10			get:CLAV			get:STRN			get:RBAK			get:LSHO			get:LUPA			get:LELB			get:LFRA			get:LWRA			get:LWRB			get:LFIN			get:RSHO			get:RUPA			get:RELB			get:RFRA			get:RWRA			get:RWRB			get:RFIN			get:LASI			get:RASI			get:LPSI			get:RPSI			
		X1	Y1	Z1	X2	Y2	Z2	X3	Y3	Z3	X4	Y4	Z4	X5	Y5	Z5	X6	Y6	Z6	X7	Y7	Z7	X8	Y8	Z8	X9	Y9	Z9	X10	Y10	Z10	X11	Y11	Z11	X12	Y12	Z12	X13	Y13	Z13	X14	Y14	Z14	X15	Y15	Z15	X16	Y16	Z16	X17	Y17	Z17	X18	Y18	Z18	X19	Y19	Z19	X20	Y20	Z20	X21	Y21	Z21	X22	Y22	Z22	X23	Y23	Z23	X24	Y24	Z24	X25	Y25	Z25	X26	Y26	Z26	X27	Y27	Z27	
1848	18.47	123.39989	1553.5372	-207.67705	-17.789423	1553.4777	-205.15295	97.237991	1555.7378	-368.02954	-33.144463	1531.104	-369.12918	56.015926	1317.0454	-404.2981	45.141899	1117.0826	-422.44556	53.803959	1281.2458	-199.5629	59.068081	1083.7683	-143.75124	-28.760128	1242.8215	-418.95425	168.0663	1351.3628	-330.1492	312.26669	1296.1797	-321.55786	420.23969	1242.2584	-339.02783	322.509	1315.9325	-298.34045	281.73325	1374.4401	-257.38181	342.31604	1409.3398	-311.30035	247.26308	1422.1851	-329.36346	-62.393005	1343.9158	-322.87549	-251.67046	1293.3842	-299.14047	-340.63626	1252.8621	-316.02283	-257.49124	1286.1952	-306.16324	-186.20969	1393.6212	-284.9892	-253.33685	1434.8801	-306.04895	-166.25691	1455.3794	-348.33539	179.90866	885.03137	-188.58041	-88.501831	872.34998	-189.34145	86.960358	940.03717	-406.81409	-3.2845316	938.79614	-409.95624
1849	18.48	123.28204	1553.567	-207.60664	-17.906706	1553.4387	-205.08553	97.136002	1555.7765	-367.9772	-33.2584	1531.0786	-369.04086	55.983246	1317.0381	-404.25824	45.163471	1117.0411	-422.34769	53.768539	1281.2072	-199.56778	59.032963	1083.7213	-143.67665	-28.728271	1242.8199	-418.94836	168.06657	1351.3628	-330.06445	312.25958	1296.1339	-321.43484	420.23505	1242.1595	-338.87866	322.43506	1315.7948	-298.20483	281.67468	1374.3464	-257.29056	342.32794	1409.2324	-311.13174	247.26649	1422.1589	-329.23645	-62.42638	1343.8842	-322.81558	-251.78528	1293.2748	-299.12961	-340.68011	1252.7419	-315.95984	-257.53549	1286.0836	-306.09357	-186.2905	1393.5424	-284.87689	-253.42393	1434.7616	-305.9147	-166.34335	1455.1688	-348.1467	179.93358	885.02191	-188.48521	-88.513603	872.3692	-189.43694	87.011742	940.052	-406.74966	-3.175261	938.73633	-410.01678
1850	18.49	123.16367	1553.553	-207.5807	-18.010241	1553.4015	-205.01314	97.040581	1555.7971	-367.89047	-33.354393	1531.0729	-368.96228	55.964447	1317.0411	-404.17935	45.146702	1117.0985	-422.38525	53.717937	1281.1936	-199.54953	59.040424	1083.6649	-143.66	-28.760668	1242.8135	-418.87045	168.08014	1351.3718	-329.99017	312.25677	1296.0515	-321.32608	420.2247	1242.0396	-338.79901	322.39761	1315.7014	-298.05746	281.6644	1374.2775	-257.15494	342.36636	1409.1394	-310.98386	247.30879	1422.1827	-329.07886	-62.478523	1343.8495	-322.76556	-251.86673	1293.1901	-299.12811	-340.74045	1252.6902	-316.00745	-257.60834	1285.9883	-306.13977	-186.38094	1393.4314	-284.87299	-253.49767	1434.6569	-305.87778	-166.41357	1455.0238	-348.15714	179.94791	885.02728	-188.46623	-88.500847	872.31927	-189.3699	87.004364	940.02509	-406.70111	-3.1687636	938.74762	-409.9769
1851	18.5	123.04227	1553.5887	-207.48373	-18.137339	1553.3489	-204.95659	96.965981	1555.8573	-367.80576	-33.422146	1531.0516	-368.92606	55.938	1317.092	-404.18982	45.127922	1117.0746	-422.3681	53.699024	1281.1454	-199.48589	59.048241	1083.6833	-143.64116	-28.786259	1242.8123	-418.77594	168.10838	1351.365	-329.91202	312.23364	1295.9569	-321.17706	420.17917	1241.8986	-338.66357	322.39624	1315.6315	-297.91425	281.68668	1374.2438	-256.98785	342.42783	1409.0508	-310.81888	247.28314	1422.0454	-328.83679	-62.527233	1343.8157	-322.71817	-251.9429	1293.0074	-299.08127	-340.81796	1252.5488	-316.02277	-257.68686	1285.8583	-306.1413	-186.48598	1393.3503	-284.80234	-253.6684	1434.5017	-305.78564	-166.5047	1454.9302	-348.11371	179.9384	885.03448	-188.3952	-88.461151	872.31342	-189.18398	87.013771	940.05029	-406.65863	-3.1529605	938.74146	-409.96338
1852	18.51	122.9053	1553.5596	-207.41367	-18.261232	1553.297	-204.90523	96.845932	1555.8621	-367.74261	-33.515961	1531.0481	-368.91135	55.903831	1317.106	-404.10083	45.096123	1117.0684	-422.28961	53.681156	1281.1084	-199.51096	59.017227	1083.6195	-143.54556	-28.788689	1242.8121	-418.77573	168.12175	1351.3672	-329.84644	312.22784	1295.8213	-321.00253	420.12653	1241.7637	-338.53882	322.40329	1315.5691	-297.76257	281.76227	1374.215	-256.80966	342.53387	1408.9714	-310.59045	247.40689	1422.1462	-328.6192	-62.601902	1343.7751	-322.61462	-252.04742	1292.8391	-299.11475	-340.87604	1252.3894	-316.04977	-257.76102	1285.7201	-306.15286	-186.63031	1393.2605	-284.76334	-253.82674	1434.3519	-305.73233	-166.6971	1454.9882	-348.16806	179.96873	885.01996	-188.35535	-88.459099	872.33044	-189.21303	87.059219	940.05048	-406.6358	-3.1778126	938.72797	-409.89914
1853	18.52	122.7811	1553.5304	-207.3199	-18.391676	1553.2463	-204.83739	96.764885	1555.924	-367.67816	-33.579781	1531.0322	-368.79724	55.857273	1317.1249	-404.06744	45.115925	1117.0579	-422.2482	53.606506	1281.0604	-199.42557	58.984276	1083.5854	-143.51036	-28.844528	1242.7764	-418.69641	168.11583	1351.3856	-329.76425	312.20206	1295.6782	-320.83029	420.0834	1241.5613	-338.35907	322.44748	1315.536	-297.62064	281.87134	1374.2026	-256.60135	342.7092	1408.9077	-310.3302	247.72238	1422.4969	-328.38382	-62.671989	1343.7145	-322.59167	-252.16574	1292.6666	-299.11313	-341.27722	1252.2975	-316.2861	-258.0596	1285.6068	-306.30988	-186.79102	1393.1793	-284.81241	-254.00594	1434.2107	-305.81628	-166.86444	1454.9589	-348.09497	179.98065	885.01007	-188.32088	-88.4151	872.31299	-189.12708	87.056862	940.03668	-406.63983	-3.1793718	938.72449	-409.90482
1854	18.53	122.67522	1553.4868	-207.22656	-18.512936	1553.2128	-204.7838	96.692932	1555.9293	-367.58603	-33.656685	1531.0708	-368.79529	55.786098	1317.1149	-403.98416	45.100082	1117.0483	-422.23566	53.527008	1281.0276	-199.47888	58.990044	1083.569	-143.47679	-28.864866	1242.7478	-418.69046	168.10701	1351.3951	-329.69199	312.16095	1295.5756	-320.67603	419.99979	1241.3638	-338.21982	322.48019	1315.4832	-297.38931	282.01083	1374.2192	-256.35455	342.91556	1408.8146	-310.06326	247.99504	1422.6837	-328.08209	-62.776558	1343.6293	-322.59689	-252.21786	1292.5249	-299.0358	-341.35641	1252.1119	-316.30206	-258.15729	1285.4764	-306.30203	-186.96458	1393.097	-284.78732	-254.21286	1434.1079	-305.8331	-167.03839	1455.0363	-347.96225	180.01094	884.99927	-188.30577	-88.360794	872.30652	-189.10536	87.036369	940.04407	-406.61053	-3.1585326	938.72003	-409.85968
1855	18.54	122.54997	1553.4315	-207.16013	-18.639278	1553.1763	-204.71629	96.594589	1555.9376	-367.50079	-33.741093	1531.0939	-368.78241	55.70768	1317.1205	-403.95108	45.093262	1117.0317	-422.17654	53.478149	1281.0087	-199.43761	58.981129	1083.5349	-143.45084	-28.86747	1242.7037	-418.63953	168.09122	1351.3964	-329.61139	312.12823	1295.432	-320.56473	419.94327	1241.1112	-338.08652	322.55923	1315.3923	-297.19223	282.1882	1374.2395	-256.13202	343.22562	1408.7433	-309.76486	248.14705	1422.7067	-327.75485	-62.855141	1343.5856	-322.54099	-252.3528	1292.3208	-299.07724	-341.13596	1251.8191	-316.19983	-258.05472	1285.3168	-306.33176	-187.15678	1393.0525	-284.8284	-254.49211	1433.9542	-305.68631	-167.29646	1455.0626	-347.86932	180.05501	885.01141	-188.24403	-88.338623	872.27472	-188.97707	87.033821	940.03674	-406.57068	-3.1405671	938.7337	-409.87604
1856	18.55	122.44341	1553.4071	-207.0182	-18.756971	1553.1248	-204.64005	96.507423	1555.9434	-367.34518	-33.840923	1531.104	-368.6557	55.634361	1317.1515	-403.89047	45.088928	1116.9672	-422.14444	53.415264	1280.9706	-199.37946	58.946918	1083.526	-143.46288	-28.932177	1242.6556	-418.61838	168.06384	1351.4054	-329.53491	312.07187	1295.2986	-320.44293	419.90018	1240.8402	-337.95624	322.67297	1315.3472	-296.99887	282.3999	1374.2482	-255.91209	343.52374	1408.6329	-309.49872	248.48398	1422.9346	-327.44308	-62.962585	1343.5059	-322.49945	-252.48178	1292.1281	-299.05377	-341.54208	1251.6943	-316.42145	-258.37195	1285.2474	-306.40649	-187.40448	1393.0383	-284.72397	-254.76813	1433.9042	-305.66565	-167.67152	1455.0784	-347.72467	180.0686	884.98572	-188.24002	-88.370911	872.27942	-189.14702	87.050056	940.01721	-406.54733	-3.1057918	938.73785	-410.01938
1857	18.56	122.30594	1553.3739	-206.93187	-18.887472	1553.1216	-204.59616	96.432854	1555.9788	-367.25345	-33.932114	1531.1129	-368.65591	55.563049	1317.2074	-403.98599	45.070202	1116.9772	-422.14365	53.315472	1280.9353	-199.35977	58.967579	1083.4891	-143.44543	-28.981459	1242.6096	-418.60596	168.03844	1351.4285	-329.45923	312.00302	1295.1537	-320.35431	419.82715	1240.5585	-337.83929	322.77118	1315.3042	-296.78574	282.67145	1374.309	-255.58287	343.85504	1408.5502	-309.19803	248.87212	1423.1636	-327.1059	-63.072502	1343.4431	-322.50446	-252.57001	1291.9739	-298.97519	-341.31192	1251.4303	-316.38901	-258.29678	1285.1267	-306.40491	-187.6472	1393.0272	-284.70609	-255.15335	1433.813	-305.63254	-168.06975	1455.1434	-347.58414	180.10617	884.97772	-188.24094	-88.340271	872.27661	-189.02916	86.999435	939.99481	-406.52551	-3.0909691	938.69226	-409.96234
1858	18.57	122.1771	1553.3452	-206.77997	-18.996073	1553.071	-204.51926	96.321617	1555.9958	-367.14865	-34.00927	1531.1201	-368.51651	55.488552	1317.1511	-403.80865	45.096901	1116.9473	-422.08575	53.179901	1280.9384	-199.35503	58.913292	1083.4385	-143.41344	-28.989199	1242.5913	-418.58469	168.01294	1351.4226	-329.39011	311.98773	1294.9958	-320.21677	419.70773	1240.238	-337.70557	322.91919	1315.3077	-296.58548	282.95905	1374.3617	-255.37015	344.26489	1408.4856	-308.92233	249.28499	1423.4813	-326.75992	-63.173866	1343.4027	-322.49814	-252.71103	1291.8108	-298.95514	-341.43433	1251.2015	-316.41602	-258.45456	1285.0465	-306.36566	-187.99072	1393.0527	-284.54565	-255.53406	1433.7749	-305.47534	-168.5013	1455.2916	-347.49069	180.13126	884.99469	-188.14903	-88.283089	872.2926	-189.00075	87.028473	939.97876	-406.52536	-3.1327491	938.67493	-409.84726
1859	18.58	122.05872	1553.3309	-206.70558	-19.136318	1553.0193	-204.47981	96.251678	1555.9979	-367.02756	-34.100155	1531.1296	-368.474	55.437263	1317.1115	-403.67764	45.093891	1116.8956	-422.0798	53.11824	1280.8981	-199.37567	58.913708	1083.4409	-143.45285	-29.027958	1242.5425	-418.59958	167.99794	1351.4366	-329.32843	311.94373	1294.8182	-320.15317	419.61816	1239.9374	-337.60388	323.03513	1315.2799	-296.38953	283.25751	1374.4918	-255.06813	344.68713	1408.4124	-308.59439	249.90631	1424.0242	-326.44681	-63.265079	1343.344	-322.49518	-252.8699	1291.5729	-298.94922	-341.51489	1250.9503	-316.42938	-258.61975	1284.9607	-306.34711	-188.44496	1393.1293	-284.45148	-256.02768	1433.6863	-305.35773	-169.02628	1455.5376	-347.43344	180.15254	884.99445	-188.16966	-88.239296	872.25208	-188.88095	87.048286	939.96979	-406.46362	-3.0283103	938.65967	-410.01822
